name C:\Users\u0101727\Documents\MyRepositories\paper-ad\predictivesimulations_2d/Results/PredSim_2D/IK_c19.mot
datacolumns 11
datarows 21
range 0.63318727 0.82506220
endheader
time	pelvis_tilt	pelvis_tx	pelvis_ty	hip_flexion_l	hip_flexion_r	knee_angle_l	knee_angle_r	ankle_angle_l	ankle_angle_r	lumbar_extension	
          0.63318727	        -15.07239249	          0.85496827	          0.89987147	         25.71160269	         11.39042652	        -10.65243884	        -40.88834854	          8.49674691	         -0.31397217	         10.32953307	
          0.64278101	        -15.08947143	          0.86694119	          0.90130864	         24.79280074	         12.66329316	        -10.40548106	        -41.78499836	          8.59946256	          0.66234263	         10.29119499	
          0.65237476	        -15.10406942	          0.87885828	          0.90250215	         23.85873689	         13.96860767	        -10.13370867	        -42.57376050	          8.74295823	          1.71866143	         10.24887004	
          0.66196851	        -15.11617213	          0.89072715	          0.90345532	         22.91384879	         15.30137237	         -9.84490835	        -43.24642685	          8.92137549	          2.83730969	         10.20287591	
          0.67156225	        -15.12590370	          0.90255512	          0.90417873	         21.96202362	         16.65557765	         -9.54614888	        -43.79552061	          9.12821700	          4.00046774	         10.15369186	
          0.68115600	        -15.13342666	          0.91434840	          0.90468940	         21.00744298	         18.02542306	         -9.24499048	        -44.21332978	          9.35580561	          5.19028626	         10.10174302	
          0.69074975	        -15.13888216	          0.92611253	          0.90500807	         20.05467951	         19.40540487	         -8.94929122	        -44.49205947	          9.59610598	          6.38894180	         10.04737208	
          0.70034349	        -15.14241616	          0.93785350	          0.90515617	         19.10852891	         20.78902754	         -8.66742250	        -44.62476416	          9.84117904	          7.57863682	          9.99095864	
          0.70993724	        -15.14424896	          0.94957837	          0.90515397	         18.17220974	         22.16939024	         -8.40497663	        -44.60577204	         10.08368264	          8.74169689	          9.93303531	
          0.71953099	        -15.14469669	          0.96129542	          0.90501957	         17.24654289	         23.53962831	         -8.16321247	        -44.43100669	         10.31696205	          9.86075173	          9.87433934	
          0.72912473	        -15.14404081	          0.97301353	          0.90476846	         16.33294561	         24.89174992	         -7.94500580	        -44.09863075	         10.53421376	         10.91905510	          9.81561463	
          0.73871848	        -15.14252789	          0.98474081	          0.90441377	         15.43356247	         26.21787520	         -7.75393409	        -43.60759279	         10.72936876	         11.90116462	          9.75747384	
          0.74831223	        -15.14040049	          0.99648631	          0.90396621	         14.54994890	         27.50922062	         -7.59294960	        -42.96086556	         10.89781813	         12.79366975	          9.70065070	
          0.75790597	        -15.13791629	          1.00825857	          0.90343487	         13.68305192	         28.75766335	         -7.46419776	        -42.16311895	         11.03661199	         13.58632512	          9.64584773	
          0.76749972	        -15.13533793	          1.02006409	          0.90282784	         12.83375927	         29.95711786	         -7.36874590	        -41.21856642	         11.14463577	         14.27304532	          9.59353587	
          0.77709346	        -15.13290588	          1.03190922	          0.90215163	         12.00274737	         31.10183819	         -7.30822095	        -40.13395231	         11.22261491	         14.85221325	          9.54416369	
          0.78668721	        -15.13084328	          1.04379832	          0.90141156	         11.19034119	         32.18888129	         -7.28353800	        -38.91477635	         11.27333799	         15.32665311	          9.49792106	
          0.79628096	        -15.12936054	          1.05573497	          0.90061142	         10.39643514	         33.21690066	         -7.29509610	        -37.56601069	         11.30124168	         15.70264687	          9.45487044	
          0.80587470	        -15.12867629	          1.06772255	          0.89975313	          9.62077841	         34.18528599	         -7.34291555	        -36.09305184	         11.31164740	         15.98856563	          9.41499305	
          0.81546845	        -15.12907199	          1.07976559	          0.89883684	          8.86275737	         35.09255887	         -7.42642897	        -34.50341970	         11.30984051	         16.19355681	          9.37836374	
          0.82506220	        -15.13093753	          1.09187057	          0.89786138	          8.12131678	         35.93525251	         -7.54456827	        -32.80487922	         11.29941997	         16.32674029	          9.34529253	
